<svg version="1.2" xmlns="http://www.w3.org/2000/svg" viewBox="0 0 179 206" width="179" height="206">
	<defs>
		<clipPath clipPathUnits="userSpaceOnUse" id="cp1">
			<path d="m0 0h827.39v205.35h-827.39z"/>
		</clipPath>
	</defs>
	<style>
		.s0 { fill: #ffffff } 
		.s1 { fill: #f6f9f3 } 
		.s2 { fill: #a3c787 } 
		.s3 { fill: #8cbc6a } 
		.s4 { fill: #dde8d1 } 
		.s5 { fill: #afcd94 } 
		.s6 { fill: #e9f0e1 } 
		.s7 { fill: #81b65b } 
		.s8 { fill: #75b24f } 
		.s9 { fill: #bad3a3 } 
		.s10 { fill: #d2e1c1 } 
		.s11 { fill: #98c179 } 
		.s12 { fill: #c6dab2 } 
		.s13 { fill: #68ad45 } 
	</style>
	<g id="Clip-Path" clip-path="url(#cp1)">
		<g>
			<path class="s0" d="m178.1 78.86l-19.83-21.46-36.46-23.35-109.11 19.05 43.77-4.95-48.03 108.59 75.57-64.53v41.07l66 14.02-0.8-28.35 22.62 6.78 5.24-20.17-2.19-10.73z"/>
			<path class="s1" d="m124.82 24.15l-27.43-24.15 15.77 21.99z"/>
			<path class="s2" d="m130.25 29.55l-5.43-5.4 1.02 16.97 6.91 3.47z"/>
			<path class="s1" d="m87.73 17.27l-34.64-6.43 25.7 10.7z"/>
			<path class="s3" d="m112.67 35.64l13.17 5.48-4.03-7.07z"/>
			<path class="s4" d="m121.81 34.05l4.03 7.07-1.02-16.97-11.66-2.16z"/>
			<path class="s5" d="m74.15 27.72l-61.45 25.38 76.46-13.35z"/>
			<path class="s6" d="m95.83 18.77l-11.89 4.91 28.73 11.96 9.14-1.59z"/>
			<path class="s7" d="m94.92 63.44l8.22-18.3-32.58 24.49z"/>
			<path class="s7" d="m40.04 71.35l-37.46 15.56 32.24-8.2z"/>
			<path class="s1" d="m56.47 48.15l-53.89 38.76 37.46-15.56z"/>
			<path class="s6" d="m34.82 78.71l-34.82 45.35 26.37-20.34z"/>
			<path class="s8" d="m34.82 78.71l35.74-9.08 32.58-24.49-63.1 26.21z"/>
			<path class="s9" d="m103.14 45.14l-46.67 3.01-16.43 23.2z"/>
			<path class="s10" d="m26.37 103.72l-17.93 53.02 62.12-87.11z"/>
			<path class="s11" d="m34.82 78.71l-8.45 25.01 44.19-34.09z"/>
			<path class="s5" d="m53.77 107.84l65.37-33.78-31.41-2.86z"/>
			<path class="s11" d="m89.47 124.06l0.02-0.01 11.52-19.43 18.13-30.56-35.13 18.15v41.07l5.47-9.22z"/>
			<path class="s6" d="m119.14 74.06l-24.22-10.62-7.19 7.76z"/>
			<path class="s10" d="m132.15 118.03l-24.17-4.69 42.56 53.18z"/>
			<path class="s12" d="m149.08 114.22l0.2 7.14 11.99 2.32 2.77-1.89z"/>
			<path class="s11" d="m107.98 113.34l24.17 4.69-5.82-15.32z"/>
			<path class="s12" d="m171.83 125.73l2.79-10.74-10.58 6.8z"/>
			<path class="s12" d="m157.37 126.35l14.46-0.62-10.56-2.05z"/>
			<path class="s9" d="m161.27 123.68l10.56 2.05-7.79-3.94z"/>
			<path class="s12" d="m132.15 118.03l17.86 29.27-0.73-25.94z"/>
			<path class="s4" d="m126.33 102.71l5.82 15.32 17.13 3.33-0.2-7.14z"/>
			<path class="s10" d="m153.8 195.84l-3.26-29.32-17.21-8.6z"/>
			<path class="s12" d="m76.04 108.28l-2.25 43.84 6.98-6.88z"/>
			<path class="s11" d="m82.71 160.4l-9.8 8.91 58.21 36.04z"/>
			<path class="s11" d="m73.79 152.12l-0.88 17.19 9.8-8.91z"/>
			<path class="s10" d="m95.83 18.77l17.33 3.22-15.77-21.99z"/>
			<path class="s12" d="m113.16 21.99l-17.33-3.22 25.98 15.28z"/>
			<path class="s3" d="m53.09 10.84l17.96 14.4 7.74-3.7z"/>
			<path class="s11" d="m112.67 35.64l-28.73-11.96-9.79 4.04 15.01 12.03z"/>
			<path class="s11" d="m87.73 71.2l7.19-7.76-24.36 6.19z"/>
			<path class="s4" d="m70.56 69.63l-62.12 87.11 45.33-48.9z"/>
			<path class="s12" d="m70.56 69.63l-16.79 38.21 33.96-36.64z"/>
			<path class="s4" d="m59.98 131.21l-32.52 46.42 38.64-28.38z"/>
			<path class="s2" d="m108.86 145.69l44.94 50.15-20.47-37.92z"/>
			<path class="s1" d="m158.27 57.4l-31.13-46.56 3.11 18.71z"/>
			<path class="s9" d="m132.75 44.59l25.52 12.81-28.02-27.85z"/>
			<path class="s10" d="m66.1 149.25l6.81 20.06 1.34-26.04z"/>
			<path class="s11" d="m76.04 108.28l-16.06 22.93 6.12 18.04 8.15-5.98z"/>
			<path class="s9" d="m107.98 113.34l-6.97-8.72-11.52 19.43z"/>
			<path class="s5" d="m84.01 133.28l24.85 12.41-19.38-21.63z"/>
			<path class="s5" d="m107.98 113.34l-18.49 10.71-0.01 0.01 40.94 28.46 20.12 14z"/>
			<path class="s4" d="m133.33 157.92l17.21 8.6-20.12-14z"/>
			<path class="s4" d="m130.42 152.52l-40.94-28.46 19.38 21.63 24.47 12.23z"/>
			<path class="s4" d="m82.71 160.4l48.41 44.95-50.35-60.11z"/>
			<path class="s2" d="m80.77 145.24l-6.98 6.88 8.92 8.28z"/>
			<path class="s1" d="m74.15 27.72l-3.1-2.48-58.35 27.86z"/>
			<path class="s10" d="m95.83 18.77l-5.41-1-2.69-0.5-8.94 4.27 5.15 2.14z"/>
			<path class="s12" d="m83.94 23.68l-5.15-2.14-7.74 3.7 3.1 2.48z"/>
			<path class="s9" d="m87.73 17.27l8.1 1.5 1.56-18.77z"/>
			<path class="s5" d="m8.44 156.74l75.57-64.53-30.24 15.63z"/>
			<path class="s10" d="m127.14 10.84l-2.32 13.31 5.43 5.4z"/>
			<path class="s1" d="m167.59 176.11l-17.58-28.81 0.53 19.22z"/>
			<path class="s1" d="m150.54 166.52l-0.53-19.22-17.86-29.27z"/>
			<path class="s12" d="m142.14 104.62l20.59-0.95 2.91-6.08z"/>
			<path class="s10" d="m173.19 103.18l3.88 2.38-2.19-10.73z"/>
			<path class="s5" d="m172.28 83.76l-6.64 13.83 9.24-2.76 1.35-6.7z"/>
			<path class="s7" d="m165.64 97.59l-2.91 6.08 10.46-0.49 1.69-8.35z"/>
			<path class="s3" d="m163.66 74.23l8.62 9.53 2.81-5.87z"/>
			<path class="s7" d="m178.1 78.86l-3.01-0.97-2.81 5.87 3.95 4.37z"/>
			<path class="s13" d="m146.77 62.83l-18.55-3.93 15.18 11.47z"/>
			<path class="s0" d="m219.48 146.48v-96.79h38.47q11.67 0 19.58 7.08c5.42 4.58 8.05 10.55 8.05 17.64 0 9.3-4.58 16.66-12.36 19.44 12.36 2.22 19.44 11.67 19.44 24.02 0 8.19-2.78 15.14-8.47 20.55-5.55 5.42-12.5 8.05-20.97 8.05h-43.74zm20.97-58.18h14.03c6.11 0 10.42-4.31 10.42-10.28 0-5.69-4.31-10-10.28-10h-14.16v20.28zm0 39.71h18.47c7.22 0 12.5-5.14 12.5-11.8 0-6.67-5.28-11.39-12.64-11.39h-18.33z"/>
			<path class="s0" d="m298.64 146.48v-69.99h20.69v9.58c3.19-7.08 10.69-11.11 20.27-11.11q2.08 0 5.42 0.42v19.44c-2.08-0.42-4.44-0.69-6.94-0.69-11.8 0-18.75 6.67-18.75 18.19v34.16z"/>
			<path class="s0" d="m355.99 85.8c6.67-7.08 15-10.55 24.86-10.55 10.55 0 18.75 4.3 20.83 10.41v-9.16h20.69v45.41c0 5.56 1.39 7.78 5.14 7.78 0.97 0 2.22-0.14 3.47-0.28v17.22c-2.22 0.69-5.28 1.11-9.3 1.11-4.58 0-8.47-0.83-11.39-2.5q-4.79-3.12-6.25-7.5c-4.58 6.8-12.22 10.14-23.19 10.14-9.86 0-18.19-3.47-24.86-10.41-6.53-7.08-9.86-15.69-9.86-25.97 0-10.15 3.34-18.76 9.86-25.7zm41.53 38.18q5.42-5.21 5.42-12.5c0-4.86-1.81-9.03-5.42-12.36-3.47-3.47-7.78-5.14-12.91-5.14-5 0-9.17 1.67-12.64 5.14-3.47 3.33-5.14 7.5-5.14 12.36 0 4.86 1.67 9.03 5.14 12.5 3.47 3.33 7.64 5 12.64 5q7.69 0 12.91-5z"/>
			<path class="s0" d="m456.93 146.48l-30-69.99h20.97l18.33 44.44 18.19-44.44h20.97l-30 69.99z"/>
			<path class="s0" d="m500.28 111.35c0-10.97 3.61-19.86 10.69-26.52 7.08-6.8 16.25-10.14 27.22-10.14 10.69 0 19.3 3.47 25.97 10.28 6.67 6.8 10 15.14 10 25.27 0 2.36-0.14 4.58-0.28 6.67h-52.91c0.42 8.33 7.64 13.75 18.61 13.75 6.53 0 12.22-2.22 17.08-6.8l12.08 11.53c-8.19 8.47-18.33 12.78-30.13 12.78-11.53 0-20.69-3.33-27.77-9.86-7.08-6.67-10.55-15.41-10.55-26.39v-0.57zm53.04-7.92c0-6.53-6.8-11.66-15.14-11.66-9.03 0-16.39 5.14-16.94 11.66z"/>
			<path class="s13" d="m667.89 60.52l-6.8 7.5c-7.36-6.8-16.25-10.14-26.66-10.14-11.39 0-20.83 3.89-28.33 11.53q-11.25 11.46-11.25 28.75c0 11.53 3.75 21.25 11.25 28.89 7.5 7.64 16.94 11.39 28.33 11.39 10.28 0 19.16-3.19 26.52-9.72v-25h-29.58v-10h40.41v38.74c-9.86 10.69-22.36 15.97-37.36 15.97-14.03 0-25.97-4.72-35.83-14.3-9.72-9.58-14.58-21.66-14.58-35.97q0-21.46 14.58-35.83c9.86-9.58 21.8-14.44 35.83-14.44 13.2 0 24.31 4.16 33.47 12.63z"/>
			<path class="s13" d="m680.52 111.76c0-11.25 3.33-20.27 9.86-27.08 6.53-6.81 15-10.28 25.13-10.28 9.58 0 17.22 3.33 23.19 10.14 5.97 6.67 9.03 14.86 9.03 24.72 0 1.53 0 3.05-0.14 4.44h-56.8c0.56 15.41 10.42 25.27 25 25.27 9.58 0 15.28-3.05 21.52-9.72l6.8 6.67c-7.36 8.19-16.8 12.36-28.33 12.36-10.42 0-19.02-3.33-25.55-9.86-6.53-6.53-9.72-15.28-9.72-26.11v-0.55zm56.24-7.08q0-8.53-6.25-14.58c-4.17-4.03-9.17-6.11-15-6.11-6.39 0-11.94 2.08-16.53 6.11q-6.87 6.05-7.5 14.58z"/>
			<path class="s13" d="m756.18 146.48v-69.99h10.28v11.8c3.75-7.78 11.67-12.91 22.08-12.91 15.69 0 25.55 10.42 25.55 26.38v28.89c0 5.69 0.83 7.36 4.86 7.36 0.69 0 1.53-0.14 2.64-0.28v8.47c-1.11 0.42-2.64 0.69-4.44 0.69-5.42 0-13.33-1.53-13.33-15.55v-27.36c0-11.67-6.8-19.02-17.91-19.02-11.53 0-19.44 8.05-19.44 19.72v41.8z"/>
		</g>
	</g>
</svg>