<svg xmlns="http://www.w3.org/2000/svg" width="828" height="206" viewBox="0 0 828 206" fill="none"><g clip-path="url(#clip0_2220_46933)"><path d="M178.1 78.8598L158.27 57.3998L121.81 34.0498L12.7004 53.0998L56.4704 48.1498L8.44043 156.74L84.0104 92.2098V133.28L150.01 147.3L149.21 118.95L171.83 125.73L177.07 105.56L174.88 94.8298L178.1 78.8598Z" fill="white"></path><path d="M124.82 24.15L97.3896 0L113.16 21.99L124.82 24.15Z" fill="#F6F9F3"></path><path d="M130.25 29.5504L124.82 24.1504L125.84 41.1204L132.75 44.5904L130.25 29.5504Z" fill="#A3C787"></path><path d="M87.7298 17.2698L53.0898 10.8398L78.7898 21.5398L87.7298 17.2698Z" fill="#F6F9F3"></path><path d="M112.67 35.6398L125.84 41.1198L121.81 34.0498L112.67 35.6398Z" fill="#8CBC6A"></path><path d="M121.81 34.0502L125.84 41.1202L124.82 24.1502L113.16 21.9902L121.81 34.0502Z" fill="#DDE8D1"></path><path d="M74.1502 27.7197L12.7002 53.0997L89.1602 39.7497L74.1502 27.7197Z" fill="#AFCD94"></path><path d="M95.8304 18.7695L83.9404 23.6795L112.67 35.6395L121.81 34.0495L95.8304 18.7695Z" fill="#E9F0E1"></path><path d="M94.9196 63.4396L103.14 45.1396L70.5596 69.6296L94.9196 63.4396Z" fill="#81B65B"></path><path d="M40.0401 71.3496L2.58008 86.9096L34.8201 78.7096L40.0401 71.3496Z" fill="#81B65B"></path><path d="M56.4701 48.1504L2.58008 86.9104L40.0401 71.3504L56.4701 48.1504Z" fill="#F6F9F3"></path><path d="M34.82 78.71L0 124.06L26.37 103.72L34.82 78.71Z" fill="#E9F0E1"></path><path d="M34.8203 78.7096L70.5603 69.6296L103.14 45.1396L40.0403 71.3496L34.8203 78.7096Z" fill="#75B24F"></path><path d="M103.14 45.1396L56.47 48.1497L40.04 71.3496L103.14 45.1396Z" fill="#BAD3A3"></path><path d="M26.3704 103.72L8.44043 156.74L70.5604 69.6299L26.3704 103.72Z" fill="#D2E1C1"></path><path d="M34.8201 78.7099L26.3701 103.72L70.5601 69.6299L34.8201 78.7099Z" fill="#98C179"></path><path d="M53.7695 107.84L119.14 74.0602L87.7295 71.2002L53.7695 107.84Z" fill="#AFCD94"></path><path d="M89.4698 124.06L89.4898 124.05L101.01 104.62L119.14 74.0596L84.0098 92.2096V133.28L89.4798 124.06H89.4698Z" fill="#98C179"></path><path d="M119.14 74.0604L94.9205 63.4404L87.7305 71.2004L119.14 74.0604Z" fill="#E9F0E1"></path><path d="M132.15 118.03L107.98 113.34L150.54 166.52L132.15 118.03Z" fill="#D2E1C1"></path><path d="M149.08 114.22L149.28 121.36L161.27 123.68L164.04 121.79L149.08 114.22Z" fill="#C6DAB2"></path><path d="M107.98 113.34L132.15 118.03L126.33 102.71L107.98 113.34Z" fill="#98C179"></path><path d="M171.83 125.73L174.62 114.99L164.04 121.79L171.83 125.73Z" fill="#C6DAB2"></path><path d="M157.37 126.35L171.83 125.73L161.27 123.68L157.37 126.35Z" fill="#C6DAB2"></path><path d="M161.27 123.68L171.83 125.73L164.04 121.79L161.27 123.68Z" fill="#BAD3A3"></path><path d="M132.15 118.03L150.01 147.3L149.28 121.36L132.15 118.03Z" fill="#C6DAB2"></path><path d="M126.33 102.71L132.15 118.03L149.28 121.36L149.08 114.22L126.33 102.71Z" fill="#DDE8D1"></path><path d="M153.8 195.84L150.54 166.52L133.33 157.92L153.8 195.84Z" fill="#D2E1C1"></path><path d="M76.04 108.28L73.79 152.12L80.77 145.24L76.04 108.28Z" fill="#C6DAB2"></path><path d="M82.7102 160.4L72.9102 169.31L131.12 205.35L82.7102 160.4Z" fill="#98C179"></path><path d="M73.7902 152.12L72.9102 169.31L82.7102 160.4L73.7902 152.12Z" fill="#98C179"></path><path d="M95.8301 18.77L113.16 21.99L97.3901 0L95.8301 18.77Z" fill="#D2E1C1"></path><path d="M113.16 21.9895L95.8301 18.7695L121.81 34.0495L113.16 21.9895Z" fill="#C6DAB2"></path><path d="M53.0898 10.8398L71.0498 25.2398L78.7898 21.5398L53.0898 10.8398Z" fill="#8CBC6A"></path><path d="M112.67 35.6397L83.9404 23.6797L74.1504 27.7197L89.1604 39.7497L112.67 35.6397Z" fill="#98C179"></path><path d="M87.7296 71.2004L94.9196 63.4404L70.5596 69.6304L87.7296 71.2004Z" fill="#98C179"></path><path d="M70.5604 69.6299L8.44043 156.74L53.7704 107.84L70.5604 69.6299Z" fill="#DDE8D1"></path><path d="M70.5595 69.6299L53.7695 107.84L87.7295 71.1999L70.5595 69.6299Z" fill="#C6DAB2"></path><path d="M59.98 131.21L27.46 177.63L66.1 149.25L59.98 131.21Z" fill="#DDE8D1"></path><path d="M108.86 145.69L153.8 195.84L133.33 157.92L108.86 145.69Z" fill="#A3C787"></path><path d="M158.27 57.3998L127.14 10.8398L130.25 29.5498L158.27 57.3998Z" fill="#F6F9F3"></path><path d="M132.75 44.5898L158.27 57.3998L130.25 29.5498L132.75 44.5898Z" fill="#BAD3A3"></path><path d="M66.0996 149.25L72.9096 169.31L74.2496 143.27L66.0996 149.25Z" fill="#D2E1C1"></path><path d="M76.0405 108.28L59.9805 131.21L66.1005 149.25L74.2505 143.27L76.0405 108.28Z" fill="#98C179"></path><path d="M107.98 113.34L101.01 104.62L89.4902 124.05L107.98 113.34Z" fill="#BAD3A3"></path><path d="M84.0098 133.28L108.86 145.69L89.4798 124.06L84.0098 133.28Z" fill="#AFCD94"></path><path d="M107.98 113.34L89.4905 124.05L89.4805 124.06L130.42 152.52L150.54 166.52L107.98 113.34Z" fill="#AFCD94"></path><path d="M133.33 157.92L150.54 166.52L130.42 152.52L133.33 157.92Z" fill="#DDE8D1"></path><path d="M130.42 152.52L89.4805 124.06L108.86 145.69L133.33 157.92L130.42 152.52Z" fill="#DDE8D1"></path><path d="M82.7095 160.4L131.12 205.35L80.7695 145.24L82.7095 160.4Z" fill="#DDE8D1"></path><path d="M80.77 145.24L73.79 152.12L82.71 160.4L80.77 145.24Z" fill="#A3C787"></path><path d="M74.1502 27.7202L71.0502 25.2402L12.7002 53.1002L74.1502 27.7202Z" fill="#F6F9F3"></path><path d="M95.83 18.7695L90.42 17.7695L87.73 17.2695L78.79 21.5395L83.94 23.6795L95.83 18.7695Z" fill="#D2E1C1"></path><path d="M83.9398 23.68L78.7898 21.54L71.0498 25.24L74.1498 27.72L83.9398 23.68Z" fill="#C6DAB2"></path><path d="M87.7305 17.27L95.8305 18.77L97.3905 0L87.7305 17.27Z" fill="#BAD3A3"></path><path d="M8.44043 156.74L84.0104 92.21L53.7704 107.84L8.44043 156.74Z" fill="#AFCD94"></path><path d="M127.14 10.8398L124.82 24.1498L130.25 29.5498L127.14 10.8398Z" fill="#D2E1C1"></path><path d="M167.59 176.11L150.01 147.3L150.54 166.52L167.59 176.11Z" fill="#F6F9F3"></path><path d="M150.54 166.52L150.01 147.3L132.15 118.03L150.54 166.52Z" fill="#F6F9F3"></path><path d="M142.14 104.62L162.73 103.67L165.64 97.5898L142.14 104.62Z" fill="#C6DAB2"></path><path d="M173.19 103.18L177.07 105.56L174.88 94.8301L173.19 103.18Z" fill="#D2E1C1"></path><path d="M172.28 83.7598L165.64 97.5898L174.88 94.8298L176.23 88.1298L172.28 83.7598Z" fill="#AFCD94"></path><path d="M165.64 97.5901L162.73 103.67L173.19 103.18L174.88 94.8301L165.64 97.5901Z" fill="#81B65B"></path><path d="M163.66 74.2305L172.28 83.7605L175.09 77.8905L163.66 74.2305Z" fill="#8CBC6A"></path><path d="M178.1 78.8596L175.09 77.8896L172.28 83.7597L176.23 88.1296L178.1 78.8596Z" fill="#81B65B"></path><path d="M146.77 62.8304L128.22 58.9004L143.4 70.3704L146.77 62.8304Z" fill="#68AD45"></path><path d="M219.48 146.48V49.6904H257.95C265.73 49.6904 272.25 52.0504 277.53 56.7704C282.95 61.3504 285.58 67.3204 285.58 74.4104C285.58 83.7104 281 91.0704 273.22 93.8504C285.58 96.0704 292.66 105.52 292.66 117.87C292.66 126.06 289.88 133.01 284.19 138.42C278.64 143.84 271.69 146.47 263.22 146.47H219.48V146.48ZM240.45 88.3004H254.48C260.59 88.3004 264.9 83.9904 264.9 78.0204C264.9 72.3304 260.59 68.0204 254.62 68.0204H240.46V88.3004H240.45ZM240.45 128.01H258.92C266.14 128.01 271.42 122.87 271.42 116.21C271.42 109.54 266.14 104.82 258.78 104.82H240.45V128.01Z" fill="white"></path><path d="M298.64 146.48V76.49H319.33V86.07C322.52 78.99 330.02 74.96 339.6 74.96C340.99 74.96 342.79 75.1 345.02 75.38V94.82C342.94 94.4 340.58 94.13 338.08 94.13C326.28 94.13 319.33 100.8 319.33 112.32V146.48H298.64Z" fill="white"></path><path d="M355.99 85.8C362.66 78.72 370.99 75.25 380.85 75.25C391.4 75.25 399.6 79.55 401.68 85.66V76.5H422.37V121.91C422.37 127.47 423.76 129.69 427.51 129.69C428.48 129.69 429.73 129.55 430.98 129.41V146.63C428.76 147.32 425.7 147.74 421.68 147.74C417.1 147.74 413.21 146.91 410.29 145.24C407.1 143.16 405.01 140.66 404.04 137.74C399.46 144.54 391.82 147.88 380.85 147.88C370.99 147.88 362.66 144.41 355.99 137.47C349.46 130.39 346.13 121.78 346.13 111.5C346.13 101.35 349.47 92.74 355.99 85.8ZM397.52 123.98C401.13 120.51 402.94 116.34 402.94 111.48C402.94 106.62 401.13 102.45 397.52 99.12C394.05 95.65 389.74 93.98 384.61 93.98C379.61 93.98 375.44 95.65 371.97 99.12C368.5 102.45 366.83 106.62 366.83 111.48C366.83 116.34 368.5 120.51 371.97 123.98C375.44 127.31 379.61 128.98 384.61 128.98C389.74 128.98 394.04 127.32 397.52 123.98Z" fill="white"></path><path d="M456.93 146.48L426.93 76.4902H447.9L466.23 120.93L484.42 76.4902H505.39L475.39 146.48H456.93Z" fill="white"></path><path d="M500.28 111.35C500.28 100.38 503.89 91.4904 510.97 84.8304C518.05 78.0304 527.22 74.6904 538.19 74.6904C548.88 74.6904 557.49 78.1604 564.16 84.9704C570.83 91.7704 574.16 100.11 574.16 110.24C574.16 112.6 574.02 114.82 573.88 116.91H520.97C521.39 125.24 528.61 130.66 539.58 130.66C546.11 130.66 551.8 128.44 556.66 123.86L568.74 135.39C560.55 143.86 550.41 148.17 538.61 148.17C527.08 148.17 517.92 144.84 510.84 138.31C503.76 131.64 500.29 122.9 500.29 111.92V111.35H500.28ZM553.32 103.43C553.32 96.9004 546.52 91.7704 538.18 91.7704C529.15 91.7704 521.79 96.9104 521.24 103.43H553.32Z" fill="white"></path><path d="M667.89 60.5196L661.09 68.0196C653.73 61.2196 644.84 57.8797 634.43 57.8797C623.04 57.8797 613.6 61.7697 606.1 69.4097C598.6 77.0497 594.85 86.6297 594.85 98.1597C594.85 109.69 598.6 119.41 606.1 127.05C613.6 134.69 623.04 138.44 634.43 138.44C644.71 138.44 653.59 135.25 660.95 128.72V103.72H631.37V93.7197H671.78V132.46C661.92 143.15 649.42 148.43 634.42 148.43C620.39 148.43 608.45 143.71 598.59 134.13C588.87 124.55 584.01 112.47 584.01 98.1597C584.01 83.8597 588.87 71.9097 598.59 62.3297C608.45 52.7497 620.39 47.8896 634.42 47.8896C647.62 47.8896 658.73 52.0496 667.89 60.5196Z" fill="#68AD45"></path><path d="M680.52 111.76C680.52 100.51 683.85 91.4904 690.38 84.6804C696.91 77.8704 705.38 74.4004 715.51 74.4004C725.09 74.4004 732.73 77.7304 738.7 84.5404C744.67 91.2104 747.73 99.4004 747.73 109.26C747.73 110.79 747.73 112.31 747.59 113.7H690.79C691.35 129.11 701.21 138.97 715.79 138.97C725.37 138.97 731.07 135.92 737.31 129.25L744.11 135.92C736.75 144.11 727.31 148.28 715.78 148.28C705.36 148.28 696.76 144.95 690.23 138.42C683.7 131.89 680.51 123.14 680.51 112.31V111.76H680.52ZM736.76 104.68C736.76 98.9904 734.68 94.1304 730.51 90.1004C726.34 86.0704 721.34 83.9904 715.51 83.9904C709.12 83.9904 703.57 86.0704 698.98 90.1004C694.4 94.1304 691.9 98.9904 691.48 104.68H736.76Z" fill="#68AD45"></path><path d="M756.18 146.48V76.4899H766.46V88.2899C770.21 80.5099 778.13 75.3799 788.54 75.3799C804.23 75.3799 814.09 85.7999 814.09 101.76V130.65C814.09 136.34 814.92 138.01 818.95 138.01C819.64 138.01 820.48 137.87 821.59 137.73V146.2C820.48 146.62 818.95 146.89 817.15 146.89C811.73 146.89 803.82 145.36 803.82 131.34V103.98C803.82 92.3099 797.02 84.9599 785.91 84.9599C774.38 84.9599 766.47 93.0099 766.47 104.68V146.48H756.18Z" fill="#68AD45"></path></g><defs><clipPath id="clip0_2220_46933"><rect width="827.39" height="205.35" fill="white"></rect></clipPath></defs></svg>